<?xml version="1.0" encoding="UTF-8" standalone="no"?>
<!-- Created with Inkscape (http://www.inkscape.org/) -->

<svg
   width="24"
   height="24"
   viewBox="0 0 6.3499999 6.35"
   version="1.1"
   id="svg1"
   sodipodi:docname="flower-focus-plant-logo.svg"
   inkscape:version="1.3.2 (091e20ef0f, 2023-11-25, custom)"
   xmlns:inkscape="http://www.inkscape.org/namespaces/inkscape"
   xmlns:sodipodi="http://sodipodi.sourceforge.net/DTD/sodipodi-0.dtd"
   xmlns="http://www.w3.org/2000/svg"
   xmlns:svg="http://www.w3.org/2000/svg">
  <sodipodi:namedview
     id="namedview1"
     pagecolor="#6a6a6a"
     bordercolor="#000000"
     borderopacity="0.25"
     inkscape:showpageshadow="2"
     inkscape:pageopacity="0.0"
     inkscape:pagecheckerboard="false"
     inkscape:deskcolor="#d1d1d1"
     inkscape:document-units="mm"
     showguides="true"
     inkscape:zoom="2.8284271"
     inkscape:cx="18.031223"
     inkscape:cy="58.86664"
     inkscape:window-width="1366"
     inkscape:window-height="703"
     inkscape:window-x="0"
     inkscape:window-y="0"
     inkscape:window-maximized="1"
     inkscape:current-layer="layer1" />
  <defs
     id="defs1" />
  <g
     inkscape:label="Layer 1"
     inkscape:groupmode="layer"
     id="layer1">
    <path
       id="path38"
       style="fill:#199955;fill-opacity:1;stroke-width:0.12248"
       d="m 2.8248456,2.4609664 c -0.381816,0.197151 -0.531484,0.66652 -0.3342745,1.048308 0.1971525,0.381815 0.6665207,0.531483 1.0483074,0.334273 0.3818156,-0.197151 0.5314836,-0.66652 0.3342743,-1.048307 C 3.6760002,2.4134244 3.206632,2.2637564 2.8248456,2.4609664 Z M 3.175,6.0859334 C 1.5672878,6.0860534 0.26394675,4.7827134 0.26406655,3.1750004 0.26394675,1.5672884 1.5672878,0.2639466 3.175,0.2640666 4.7827121,0.2639466 6.0860532,1.5672884 6.0859334,3.1750004 6.0860532,4.7827134 4.7827122,6.0860534 3.175,6.0859334 Z m 0.3196346,-0.931209 c 0.3335152,0.0093 0.6588464,-0.168936 0.8221721,-0.485242 0.1557753,-0.301572 0.1234731,-0.65021 -0.053743,-0.913122 0.3171182,-0.0075 0.6203823,-0.183515 0.77618,-0.485241 0.2273011,-0.440043 0.05457,-0.980958 -0.3855062,-1.208195 -0.3015662,-0.155773 -0.6502117,-0.12398 -0.9131225,0.05323 -0.00772,-0.316943 -0.1836696,-0.619945 -0.4852417,-0.775664 -0.4400427,-0.227299 -0.9809596,-0.05457 -1.208195,0.385507 -0.1557723,0.301566 -0.1239798,0.650211 0.053227,0.913122 -0.3169429,0.0077 -0.619945,0.183669 -0.7756632,0.485242 -0.2273013,0.440042 -0.055087,0.980959 0.3849894,1.208195 0.3015755,0.155777 0.6507256,0.123994 0.9136393,-0.05323 0.00772,0.316943 0.1836694,0.619946 0.4852417,0.775663 0.123762,0.06393 0.2555171,0.09612 0.3860229,0.09974 z"
       sodipodi:nodetypes="ccccccccccccccccccccccccc" />
  </g>
</svg>
