<?xml version="1.0" encoding="UTF-8" standalone="no"?>
<!-- Created with Inkscape (http://www.inkscape.org/) -->

<svg
   width="24"
   height="24"
   viewBox="0 0 6.3499999 6.35"
   version="1.1"
   id="svg1"
   sodipodi:docname="fruit-focus-plant-logo.svg"
   inkscape:version="1.3.2 (091e20ef0f, 2023-11-25, custom)"
   xmlns:inkscape="http://www.inkscape.org/namespaces/inkscape"
   xmlns:sodipodi="http://sodipodi.sourceforge.net/DTD/sodipodi-0.dtd"
   xmlns="http://www.w3.org/2000/svg"
   xmlns:svg="http://www.w3.org/2000/svg">
  <sodipodi:namedview
     id="namedview1"
     pagecolor="#6a6a6a"
     bordercolor="#000000"
     borderopacity="0.25"
     inkscape:showpageshadow="2"
     inkscape:pageopacity="0.0"
     inkscape:pagecheckerboard="false"
     inkscape:deskcolor="#d1d1d1"
     inkscape:document-units="mm"
     showguides="true"
     inkscape:zoom="2.8284271"
     inkscape:cx="18.031223"
     inkscape:cy="58.86664"
     inkscape:window-width="1366"
     inkscape:window-height="703"
     inkscape:window-x="0"
     inkscape:window-y="0"
     inkscape:window-maximized="1"
     inkscape:current-layer="layer1" />
  <defs
     id="defs1" />
  <g
     inkscape:label="Layer 1"
     inkscape:groupmode="layer"
     id="layer1">
    <path
       id="path43"
       style="fill:#199955;fill-opacity:1;stroke:none;stroke-width:0.205212;stroke-dasharray:none"
       d="M 3.2723483,1.9923773 C 2.9576763,2.9992956 3.6922223,3.434832 4.4501633,3.8576277 4.3327693,2.8819415 4.2962903,1.802215 3.2723483,1.9923773 Z M 3.1750003,0.26406659 C 1.5672893,0.26394659 0.2639469,1.5672887 0.2640667,3.175 0.2639469,4.7827105 1.5672893,6.0860534 3.1750003,6.0859334 4.7827103,6.0860534 6.0860533,4.7827105 6.0859333,3.175 6.0860533,1.5672896 4.7827103,0.26394659 3.1750003,0.26406659 Z M 2.6334313,1.5456421 c 0.273036,0.00574 0.497785,0.1275474 0.790649,0.3038574 0.357751,-0.00489 0.546996,-0.093658 0.805119,-0.0062 0.637847,0.2166681 0.91609,1.0947231 0.621667,1.9611206 -0.294397,0.8665982 -1.050368,1.3936082 -1.688269,1.1766712 -0.09765,-0.033517 -0.188668,-0.084123 -0.271818,-0.1498616 -0.05972,0.014667 -0.120499,0.023478 -0.181384,0.025838 -0.673045,0.026633 -1.247916,-0.6928969 -1.284159,-1.6071371 -0.03621,-0.9142666 0.479842,-1.677039 1.152901,-1.7037719 0.01867,-6.678e-4 0.03709,-8.998e-4 0.05529,-5.168e-4 z" />
  </g>
</svg>
