<?xml version="1.0" encoding="UTF-8" standalone="no"?>
<!-- Created with Inkscape (http://www.inkscape.org/) -->

<svg
   width="216.83806"
   height="376.2063"
   viewBox="0 0 57.371734 99.537918"
   version="1.1"
   id="svg1"
   inkscape:version="1.3.2 (091e20ef0f, 2023-11-25, custom)"
   sodipodi:docname="0.svg"
   xmlns:inkscape="http://www.inkscape.org/namespaces/inkscape"
   xmlns:sodipodi="http://sodipodi.sourceforge.net/DTD/sodipodi-0.dtd"
   xmlns="http://www.w3.org/2000/svg"
   xmlns:svg="http://www.w3.org/2000/svg">
  <sodipodi:namedview
     id="namedview1"
     pagecolor="#ffffff"
     bordercolor="#000000"
     borderopacity="0.25"
     inkscape:showpageshadow="2"
     inkscape:pageopacity="0.0"
     inkscape:pagecheckerboard="0"
     inkscape:deskcolor="#d1d1d1"
     inkscape:document-units="mm"
     showguides="true"
     inkscape:zoom="0.44453563"
     inkscape:cx="112.47692"
     inkscape:cy="122.59985"
     inkscape:window-width="1366"
     inkscape:window-height="703"
     inkscape:window-x="0"
     inkscape:window-y="0"
     inkscape:window-maximized="1"
     inkscape:current-layer="layer1" />
  <defs
     id="defs1" />
  <g
     inkscape:label="Layer 1"
     inkscape:groupmode="layer"
     id="layer1"
     transform="translate(-77.147463,-56.064377)">
    <path
       id="rect1"
       style="color:#000000;fill:#000000;stroke-width:0.350881;-inkscape-stroke:none"
       d="m 112.76622,56.064382 c -1.01893,-9.96e-4 -2.03944,0.139478 -3.04958,0.444619 -1.74539,0.527258 -3.02878,1.687097 -3.96457,3.10705 -0.93003,-1.375435 -2.19282,-2.495676 -3.89851,-3.010925 -0.16835,-0.05087 -0.33719,-0.09724 -0.50606,-0.139067 -5.235224,-1.295893 -10.694873,1.705703 -14.723305,5.734135 -4.158388,4.15838 -7.221826,9.841362 -5.594407,15.228707 0.527284,1.745505 1.687652,3.028775 3.107711,3.964576 -1.375638,0.93005 -2.495952,2.192642 -3.011256,3.898512 -0.05087,0.168351 -0.09724,0.33752 -0.139067,0.506391 -1.295894,5.235225 1.705374,10.694865 5.733804,14.72331 4.158382,4.15839 9.841691,7.22149 15.22904,5.59407 0.57051,-0.17234 1.087,-0.41802 1.56276,-0.71251 v 4.28003 H 84.332721 c -3.940643,0 -7.185258,3.24496 -7.185258,7.18559 v 2.07644 c 0,3.94063 3.244615,7.18592 7.185258,7.18592 h 0.341227 l 2.581171,22.5494 c 0.411114,3.59146 3.219719,6.92166 7.170394,6.92166 h 22.814647 c 3.95067,0 6.75962,-3.33019 7.17073,-6.92166 l 2.58084,-22.5494 h 0.34188 c 3.94065,0 7.18559,-3.24529 7.18559,-7.18592 v -2.07644 c 0,-3.94063 -3.24494,-7.18559 -7.18559,-7.18559 h -19.17907 v -4.43298 c 0.50065,0.3218 1.05022,0.58557 1.65857,0.76934 0.16835,0.0509 0.33719,0.0972 0.50605,0.13906 5.23523,1.2959 10.69522,-1.70535 14.72365,-5.7338 4.15837,-4.158382 7.22149,-9.841688 5.59406,-15.229036 -0.52725,-1.745411 -1.68741,-3.028788 -3.10737,-3.964577 1.37547,-0.930024 2.49567,-2.1928 3.01093,-3.898511 0.0509,-0.168352 0.0972,-0.33719 0.13906,-0.506061 v -3.3e-4 c 1.29588,-5.235227 -1.70539,-10.694875 -5.7338,-14.723307 -3.37868,-3.378688 -7.7641,-6.034501 -12.17947,-6.038696 z m -0.0145,4.702196 c 2.66253,0.118137 6.15317,1.860248 8.91187,4.618953 3.39533,3.395336 5.25089,7.900806 4.43398,10.605128 -0.2561,0.847788 -1.1323,1.62614 -2.97823,2.2667 -0.7684,0.266648 -1.66407,0.478897 -2.6284,0.645457 -0.24246,-0.03458 -0.68244,-0.0682 -1.00684,-0.09877 -0.48729,-2.684232 -1.76103,-5.250602 -3.8265,-7.316068 -2.09321,-2.093202 -4.701,-3.372312 -7.42441,-3.844669 -0.0317,-0.342531 -0.0644,-0.748785 -0.10042,-0.995273 0.16862,-0.997539 0.38468,-1.925477 0.65933,-2.716935 0.64055,-1.845928 1.41989,-2.723439 2.26769,-2.979543 0.50706,-0.153173 1.07749,-0.212245 1.69193,-0.184983 z m -13.932174,0.09678 c 0.614512,-0.02727 1.184874,0.03181 1.691934,0.184983 0.84779,0.256102 1.62647,1.131977 2.26703,2.977892 0.26664,0.768397 0.47889,1.664078 0.64545,2.628407 -0.0346,0.242474 -0.0682,0.682353 -0.0988,1.006835 -2.68448,0.487192 -5.251401,1.760851 -7.317052,3.826501 -2.093282,2.093282 -3.372188,4.701044 -3.844337,7.424415 -0.342578,0.03183 -0.74876,0.06472 -0.995274,0.10075 -0.997418,-0.168611 -1.925228,-0.384717 -2.716604,-0.659332 -1.845928,-0.640555 -2.723107,-1.419895 -2.979213,-2.267691 -0.816924,-2.704312 1.038311,-7.208477 4.433641,-10.603806 2.758712,-2.758706 6.250313,-4.500783 8.913195,-4.618954 z m 7.013794,11.182869 c 2.3629,-2.2e-4 4.72587,0.907627 6.54212,2.723871 3.63249,3.632491 3.63249,9.452728 0,13.085219 -3.63249,3.63249 -9.45174,3.631531 -13.084226,-9.97e-4 -3.632491,-3.632491 -3.632492,-9.450745 0,-13.083236 1.816246,-1.816246 4.179226,-2.724643 6.542106,-2.724863 z m 14.66386,11.565718 c 0.99777,0.168633 1.92596,0.384297 2.71759,0.659 1.84592,0.640554 2.7231,1.419895 2.97921,2.26769 0.81692,2.704314 -1.0383,7.20848 -4.43364,10.603808 -3.39533,3.395337 -7.9008,5.250887 -10.60513,4.433977 -0.84779,-0.25611 -1.62646,-1.13197 -2.26702,-2.977899 -0.26665,-0.768398 -0.47891,-1.664078 -0.64546,-2.628407 0.0346,-0.242394 0.0682,-0.682034 0.0988,-1.006504 2.68419,-0.487086 5.25052,-1.760622 7.31607,-3.826171 2.09338,-2.093365 3.3724,-4.701425 3.84467,-7.425075 0.34239,-0.03175 0.74858,-0.06442 0.99495,-0.100419 z m -29.321425,0.109998 c 0.242371,0.03457 0.682115,0.06821 1.006505,0.09877 0.487448,2.684073 1.761362,5.25027 3.826831,7.315738 2.093281,2.093283 4.701039,3.372526 7.424419,3.844999 0.0317,0.342627 0.0644,0.749015 0.10041,0.995604 -0.16862,0.997521 -0.3847,1.925156 -0.65932,2.716604 -0.64056,1.845942 -1.4199,2.723432 -2.2677,2.979542 -2.704349,0.81692 -7.208476,-1.03863 -10.603803,-4.433969 -3.395331,-3.395339 -5.250882,-7.900811 -4.433971,-10.605128 0.256101,-0.847791 1.132308,-1.62614 2.978222,-2.266699 0.768398,-0.266647 1.664079,-0.478898 2.628407,-0.645458 z m -6.843041,30.603087 h 43.000896 c 1.44935,0 2.54318,1.09451 2.54318,2.54384 v 2.07644 c 0,1.44933 -1.09383,2.54417 -2.54318,2.54417 H 84.332721 c -1.44934,0 -2.543513,-1.09484 -2.543513,-2.54417 v -2.07644 c 0,-1.44933 1.094173,-2.54384 2.543513,-2.54384 z m 5.013363,11.8062 h 32.973843 l -2.52073,22.02086 c -0.20186,1.76353 -1.11973,2.80778 -2.55903,2.80778 H 94.425513 c -1.439301,0 -2.356507,-1.04424 -2.558377,-2.80778 z" />
  </g>
</svg>
